<svg width="18" height="18" viewBox="0 0 18 18" fill="none" xmlns="http://www.w3.org/2000/svg">
<path d="M6.28875 9.231H11.7112V8.481H6.28875V9.231ZM6.28875 11.3077H11.7112V10.5577H6.28875V11.3077ZM6.28875 13.3853H9.46125V12.6353H6.28875V13.3853ZM4.96125 15.75C4.61625 15.75 4.32825 15.6345 4.09725 15.4035C3.86625 15.1725 3.7505 14.8843 3.75 14.5387V3.46125C3.75 3.11625 3.86575 2.82825 4.09725 2.59725C4.32875 2.36625 4.617 2.2505 4.962 2.25H10.875L14.25 5.625V14.5387C14.25 14.8837 14.1345 15.172 13.9035 15.4035C13.6725 15.635 13.384 15.7505 13.038 15.75H4.96125ZM10.5 6H13.5L10.5 3V6Z" fill="#212121"/>
</svg>
