<svg xmlns="http://www.w3.org/2000/svg" version="1.0" width="175.000000pt" height="175.000000pt" viewBox="-3 -3 181 181" preserveAspectRatio="xMidYMid meet" transform="matrix(1, 0, 0, 1, 0, 0)"><g id="deeditor_bgCarrier" stroke-width="0">
  <rect id="dee_c_e" x="-3" y="-3" width="181" height="181" rx="38.4" fill="#24e6de" strokewidth="0"/>
</g>

<g transform="translate(0.000000,175.000000) scale(0.100000,-0.100000)" fill="#0f0f0f" stroke="none">
<path d="M980 1489 c-213 -116 -374 -290 -459 -494 l-32 -76 31 -50 32 -49 50 77 c97 149 266 292 456 387 l92 47 -16 37 c-8 20 -27 65 -41 100 -14 34 -28 62 -32 62 -3 0 -40 -19 -81 -41z" fill="#0f0f0f"/>
<path d="M950 1210 c-25 -16 -44 -32 -43 -35 1 -4 33 -28 70 -55 135 -95 260 -245 349 -420 27 -52 50 -97 51 -99 3 -4 74 21 151 55 l54 24 -47 87 c-82 155 -189 275 -327 366 -76 51 -187 108 -206 106 -4 0 -27 -13 -52 -29z" fill="#0f0f0f"/>
<path d="M280 1042 c-47 -20 -87 -37 -89 -38 -7 -5 49 -115 90 -176 120 -178 291 -317 474 -383 l72 -27 47 30 47 30 -53 31 c-170 98 -330 277 -437 489 -23 45 -47 82 -54 81 -6 -1 -50 -17 -97 -37z" fill="#0f0f0f"/>
<path d="M848 924 c-15 -8 -35 -28 -43 -44 -65 -126 94 -249 195 -149 54 54 51 128 -6 179 -40 34 -99 40 -146 14z" fill="#0f0f0f"/>
<path d="M1225 738 c-77 -117 -276 -277 -441 -355 -41 -19 -74 -38 -74 -41 0 -18 75 -192 82 -192 5 0 37 14 71 31 187 95 335 239 433 422 l33 62 -31 57 c-17 32 -34 58 -38 58 -4 0 -20 -19 -35 -42z" fill="#0f0f0f"/>
<path d="M438 3 c244 -2 640 -2 880 0 240 1 41 2 -443 2 -484 0 -681 -1 -437 -2z" fill="#0f0f0f"/>
</g>
</svg>