<svg width="12" height="14" viewBox="0 0 12 14" fill="none" xmlns="http://www.w3.org/2000/svg">
<path d="M3.28875 7.231H8.71125V6.481H3.28875V7.231ZM3.28875 9.30775H8.71125V8.55775H3.28875V9.30775ZM3.28875 11.3853H6.46125V10.6353H3.28875V11.3853ZM1.96125 13.75C1.61625 13.75 1.32825 13.6345 1.09725 13.4035C0.86625 13.1725 0.7505 12.8843 0.75 12.5387V1.46125C0.75 1.11625 0.86575 0.82825 1.09725 0.59725C1.32875 0.36625 1.617 0.2505 1.962 0.25H7.875L11.25 3.625V12.5387C11.25 12.8837 11.1345 13.172 10.9035 13.4035C10.6725 13.635 10.384 13.7505 10.038 13.75H1.96125ZM7.5 4H10.5L7.5 1V4Z" fill="#212121"/>
</svg>
